Coordinates
version=1
nRows=13
nColumns=40
inDegrees=yes

Units are S.I. units (second, meters, Newtons, ...)
Angles are in degrees.

endheader
time	pelvis_tilt	pelvis_list	pelvis_rotation	pelvis_tx	pelvis_ty	pelvis_tz	hip_flexion_r	hip_adduction_r	hip_rotation_r	knee_angle_r	knee_angle_r_beta	ankle_angle_r	subtalar_angle_r	mtp_angle_r	hip_flexion_l	hip_adduction_l	hip_rotation_l	knee_angle_l	knee_angle_l_beta	ankle_angle_l	subtalar_angle_l	mtp_angle_l	lumbar_extension	lumbar_bending	lumbar_rotation	arm_flex_r	arm_add_r	arm_rot_r	elbow_flex_r	pro_sup_r	wrist_flex_r	wrist_dev_r	arm_flex_l	arm_add_l	arm_rot_l	elbow_flex_l	pro_sup_l	wrist_flex_l	wrist_dev_l
     21.53000000	     -7.03310010	     -6.37543325	     -3.67163909	      0.81364684	      0.92438857	      0.52164602	     16.04423119	      5.45527301	    -13.66902103	     17.81679850	     17.81679850	     10.46432420	      0.23772511	     -2.37401220	     28.42319012	    -13.66890322	     -1.34677631	     66.52647085	     66.52647085	      6.22476933	    -18.71354138	     12.62299713	    -10.02317323	      7.18025209	      1.14106076	     15.26616031	    -15.72856940	     -3.67712259	     58.05608871	     45.74116154	      0.00000000	      0.00000000	      4.23858460	     -7.55622046	     -7.59393561	     25.06765557	     46.09233360	      0.00000000	      0.00000000
     21.54228571	     -7.25682172	     -6.38174772	     -3.43320666	      0.81224005	      0.92461620	      0.52223580	     15.62634001	      5.54600944	    -13.76582266	     17.24543435	     17.24543435	     10.55547730	      0.30994724	     -2.33720968	     29.82227102	    -13.90487926	     -1.28664834	     65.32535579	     65.32535579	      6.82006996	    -18.92483390	     13.04409325	    -10.02205938	      7.00059446	      1.01832348	     17.06240823	    -15.62029873	     -3.80735797	     59.74052063	     45.69254108	      0.00000000	      0.00000000	      3.24412467	     -7.52036185	     -7.58946750	     24.64938276	     46.07972906	      0.00000000	      0.00000000
     21.55457143	     -7.50814073	     -6.32322090	     -3.25057430	      0.81079230	      0.92473953	      0.52277396	     15.34588503	      5.55184603	    -13.80177961	     16.86055999	     16.86055999	     10.69988040	      0.34060514	     -2.33887299	     31.11090289	    -14.09348938	     -1.39645097	     63.89337692	     63.89337692	      7.30414805	    -19.10185533	     13.28729056	    -10.00403636	      6.71989971	      1.43127036	     18.77695892	    -16.01215714	     -4.00657523	     60.78634226	     45.67167573	      0.00000000	      0.00000000	      2.51585653	     -7.34346026	     -7.58699813	     24.45172732	     46.06638366	      0.00000000	      0.00000000
     21.56685714	     -7.59699785	     -6.42617479	     -2.89591324	      0.80962831	      0.92512496	      0.52308070	     14.60160979	      5.75476524	    -13.99340878	     15.94499500	     15.94499500	     10.66891918	      0.47747446	     -2.36198467	     32.19773022	    -14.25733601	     -1.21697661	     62.30470877	     62.30470877	      8.28185141	    -19.17927987	     15.03911751	    -10.19872749	      6.74416141	      0.84022489	     20.31575419	    -15.64717608	     -3.92706935	     64.10214544	     45.55783247	      0.00000000	      0.00000000	      1.10626981	     -7.41272548	     -7.66222077	     24.58856632	     46.05747212	      0.00000000	      0.00000000
     21.57914286	     -7.78207103	     -6.42099415	     -2.63770879	      0.80836147	      0.92531002	      0.52328327	     14.11551052	      5.81631218	    -14.11979348	     15.29238167	     15.29238167	     10.65773800	      0.61170269	     -2.50213533	     33.25789792	    -14.29783223	     -1.19257073	     60.45885507	     60.45885507	      9.20879883	    -19.23878173	     16.72402821	    -10.32031651	      6.59456254	      0.94415851	     21.60438128	    -15.89673470	     -3.97797455	     66.73331043	     45.47393912	      0.00000000	      0.00000000	      0.06301118	     -7.33053201	     -7.71719405	     25.00342853	     46.05019186	      0.00000000	      0.00000000
     21.59142857	     -7.98007395	     -6.41239115	     -2.34206369	      0.80711372	      0.92538834	      0.52321080	     13.68758808	      5.84147107	    -14.29310404	     14.72129056	     14.72129056	     10.69355841	      0.73853174	     -2.65000927	     34.21516774	    -14.23977936	     -1.14198874	     58.30281108	     58.30281108	      9.95965573	    -19.27347023	     17.92812906	    -10.38472562	      6.49555733	      1.08966779	     22.96629144	    -16.14111357	     -4.20472778	     68.99681703	     45.41126006	      0.00000000	      0.00000000	     -0.86045492	     -7.22990011	     -7.73260178	     25.28186716	     46.03901082	      0.00000000	      0.00000000
     21.60371429	     -8.28735762	     -6.36333633	     -2.06206227	      0.80577462	      0.92523686	      0.52291115	     13.51928337	      5.78544932	    -14.43567066	     14.40262698	     14.40262698	     10.81000248	      0.71636544	     -2.67280186	     35.16308970	    -14.08429034	     -1.15363384	     55.81151992	     55.81151992	     10.35130782	    -19.28464627	     18.21788671	    -10.26123906	      6.35399405	      1.45159513	     24.51191775	    -16.57838779	     -4.47122980	     69.87159950	     45.39871458	      0.00000000	      0.00000000	     -1.42523311	     -7.07601745	     -7.73195250	     25.15998316	     46.02904157	      0.00000000	      0.00000000
     21.61600000	     -8.41900070	     -6.23187540	     -1.72432154	      0.80469276	      0.92547665	      0.52229637	     12.92580552	      5.65946636	    -14.64244211	     13.65529138	     13.65529138	     10.85230099	      0.99255318	     -2.67379577	     35.70594537	    -13.65817312	     -1.07877207	     52.90589924	     52.90589924	     10.78620110	    -19.25622851	     18.66054561	    -10.41318751	      6.15644563	      1.16909999	     25.99407056	    -16.33693719	     -4.72496201	     72.06151946	     45.34113522	      0.00000000	      0.00000000	     -2.31364601	     -7.06572377	     -7.77516301	     25.14180083	     46.02196435	      0.00000000	      0.00000000
     21.62828571	     -8.72052979	     -6.16335032	     -1.38284247	      0.80341297	      0.92523544	      0.52139919	     12.70011622	      5.54271415	    -14.90612595	     13.24231983	     13.24231983	     10.97312585	      1.09123748	     -2.74256810	     36.40121480	    -13.13960637	     -0.76578662	     49.84376753	     49.84376753	     11.15328952	    -19.19610903	     18.82124994	    -10.33380665	      6.05324295	      1.28746191	     27.45381082	    -16.61152632	     -5.04029253	     73.54137728	     45.31000263	      0.00000000	      0.00000000	     -2.89409948	     -6.91558343	     -7.81695487	     25.19543573	     46.01889303	      0.00000000	      0.00000000
     21.64057143	     -8.90875168	     -6.01709100	     -1.00978184	      0.80235875	      0.92521322	      0.52024150	     12.29403192	      5.31796227	    -15.22333727	     12.75769264	     12.75769264	     11.09445162	      1.41461469	     -2.86334966	     36.74920297	    -12.41032298	     -0.35599773	     46.40459095	     46.40459095	     11.28292397	    -19.01064179	     18.66197625	    -10.39052433	      5.92248267	      1.20608480	     28.69363345	    -16.56689037	     -5.39255416	     75.69918562	     45.25721595	      0.00000000	      0.00000000	     -3.57408541	     -6.84934924	     -7.91820975	     25.35897022	     46.02503019	      0.00000000	      0.00000000
     21.65285714	     -9.25072853	     -5.97714014	     -0.65589091	      0.80114849	      0.92475044	      0.51887659	     12.17650217	      5.18135806	    -15.51391653	     12.48732895	     12.48732895	     11.23593127	      1.47113220	     -2.96019140	     37.23634771	    -11.69310351	      0.29398073	     42.93206449	     42.93206449	     11.52898286	    -18.59955205	     18.54880319	    -10.23619250	      5.92390908	      1.36683273	     30.11434946	    -16.91025573	     -5.73580763	     76.94348110	     45.23503492	      0.00000000	      0.00000000	     -3.95465541	     -6.66150198	     -7.96033923	     25.41487076	     46.02561228	      0.00000000	      0.00000000
     21.66514286	     -9.44336761	     -5.70294002	     -0.31812684	      0.80024812	      0.92462799	      0.51732567	     11.80556542	      4.78901211	    -15.81093932	     12.09112592	     12.09112592	     11.39739897	      1.79207844	     -3.09029807	     37.23305319	    -10.72679478	      0.85589395	     39.07821482	     39.07821482	     11.51892464	    -18.03513921	     17.93391493	    -10.30398149	      5.60637278	      1.27333406	     31.29300698	    -16.83871043	     -6.11042078	     78.88630479	     45.19043234	      0.00000000	      0.00000000	     -4.40790211	     -6.60661268	     -8.06205452	     25.51732174	     46.03646856	      0.00000000	      0.00000000
     21.67742857	     -9.58448781	     -5.75715932	      0.04988397	      0.79958587	      0.92416755	      0.51577977	     11.42351355	      4.70272904	    -16.38081397	     11.82804816	     11.82804816	     11.53812059	      2.34704185	     -3.57816020	     36.95307955	    -10.20989077	      1.32809069	     34.82082678	     34.82082678	      9.32100687	    -17.30701224	     11.31888813	    -10.43721360	      5.73635728	      2.09808391	     31.31275514	    -17.31709756	     -7.85969433	     82.81498305	     45.14551370	      0.00000000	      0.00000000	     -4.36788515	     -6.42656175	     -8.55135378	     25.79733318	     46.14427448	      0.00000000	      0.00000000
